{
    "patcher": {
        "fileversion": 1,
        "appversion": {
            "major": 9,
            "minor": 2,
            "revision": 0,
            "architecture": "x64",
            "modernui": 1
        },
        "classnamespace": "box",
        "rect": [ 37.0, 222.0, 1657.0, 807.0 ],
        "boxes": [
            {
                "box": {
                    "id": "obj-11",
                    "linecount": 2,
                    "maxclass": "comment",
                    "numinlets": 1,
                    "numoutlets": 0,
                    "patching_rect": [ 926.0, 16.0, 569.0, 33.0 ],
                    "text": "simple MIDI messages sent to the Move will use indexed color mode for setting LEDs. Here we can see the simple MIDI input working as controlled by the other emulator. use midireset to reset all the LEDs"
                }
            },
            {
                "box": {
                    "id": "obj-8",
                    "maxclass": "message",
                    "numinlets": 2,
                    "numoutlets": 1,
                    "outlettype": [ "" ],
                    "patching_rect": [ 864.0, 16.0, 57.0, 22.0 ],
                    "text": "midireset"
                }
            },
            {
                "box": {
                    "id": "obj-4",
                    "maxclass": "newobj",
                    "numinlets": 2,
                    "numoutlets": 2,
                    "outlettype": [ "", "" ],
                    "patching_rect": [ 64.0, 685.0, 87.0, 22.0 ],
                    "text": "routepass midi"
                }
            },
            {
                "box": {
                    "disablefind": 0,
                    "id": "obj-2",
                    "maxclass": "jweb",
                    "numinlets": 1,
                    "numoutlets": 1,
                    "outlettype": [ "" ],
                    "patching_rect": [ 864.0, 54.0, 776.0, 603.0 ],
                    "rendermode": 0,
                    "url": "file://move_midi_emulator.html"
                }
            },
            {
                "box": {
                    "id": "obj-6",
                    "maxclass": "newobj",
                    "numinlets": 1,
                    "numoutlets": 0,
                    "patching_rect": [ 37.0, 740.0, 32.0, 22.0 ],
                    "text": "print"
                }
            },
            {
                "box": {
                    "id": "obj-3",
                    "maxclass": "message",
                    "numinlets": 2,
                    "numoutlets": 1,
                    "outlettype": [ "" ],
                    "patching_rect": [ 37.0, 12.0, 188.0, 22.0 ],
                    "text": "readfile move_midi_emulator.html"
                }
            },
            {
                "box": {
                    "disablefind": 0,
                    "id": "obj-1",
                    "maxclass": "jweb",
                    "numinlets": 1,
                    "numoutlets": 1,
                    "outlettype": [ "" ],
                    "patching_rect": [ 37.0, 54.0, 776.0, 603.0 ],
                    "rendermode": 0,
                    "url": "file://move_midi_emulator.html"
                }
            }
        ],
        "lines": [
            {
                "patchline": {
                    "destination": [ "obj-4", 0 ],
                    "order": 0,
                    "source": [ "obj-1", 0 ]
                }
            },
            {
                "patchline": {
                    "destination": [ "obj-6", 0 ],
                    "order": 1,
                    "source": [ "obj-1", 0 ]
                }
            },
            {
                "patchline": {
                    "destination": [ "obj-1", 0 ],
                    "order": 1,
                    "source": [ "obj-3", 0 ]
                }
            },
            {
                "patchline": {
                    "destination": [ "obj-2", 0 ],
                    "order": 0,
                    "source": [ "obj-3", 0 ]
                }
            },
            {
                "patchline": {
                    "destination": [ "obj-2", 0 ],
                    "source": [ "obj-4", 0 ]
                }
            },
            {
                "patchline": {
                    "destination": [ "obj-2", 0 ],
                    "source": [ "obj-8", 0 ]
                }
            }
        ],
        "autosave": 0
    }
}